# xmcd
#
# Track frame offsets:
#	150
#	11824
#	30078
#	43776
#	64604
#	85098
#	105481
#	143712
#	164023
#	186766
#	209165
#	229715
#	250896
#	267187
#	291943
#
# Disc length: 4213 seconds
#
# Revision: 2
# Processed by: cddbd v1.4b41PL2 Copyright (c) Steve Scherf et al.
# Submitted via: EZCDDA 4.3.2
#
DISCID=d110730f
DTITLE=Apache Tribe - Demo
DYEAR=1900
DGENRE=
TTITLE0=Sound of Belfast - Intro feat. Cora
TTITLE1=Switch
TTITLE2=RockEuil Ears
TTITLE3=Grunt Buster
TTITLE4=Jun - Gul
TTITLE5=Fresh
TTITLE6=Rogue Disciple
TTITLE7=Pipe Steam
TTITLE8=Space Between my Ears
TTITLE9=Uzi
TTITLE10=Trk
TTITLE11=Knuckle Funk
TTITLE12=Cornerstone
TTITLE13=Bliss
TTITLE14=Tokia
EXTD=
EXTT0=
EXTT1=
EXTT2=
EXTT3=
EXTT4=
EXTT5=
EXTT6=
EXTT7=
EXTT8=
EXTT9=
EXTT10=
EXTT11=
EXTT12=
EXTT13=
EXTT14=
PLAYORDER=
